<?xml version="1.0" encoding="UTF-8"?><svg id="Layer_1" xmlns="http://www.w3.org/2000/svg" viewBox="0 0 33.9209 25.4343"><defs><style>.cls-1{fill:#1d1d1d;}</style></defs><path class="cls-1" d="m.8747,4.3987l15.4875,8.0489c.3927.2251.8753.2251,1.268,0l15.2841-7.9811c.4889-.1442.7683-.6575.6241-1.1464-.0294-.0995-.0753-.1934-.1358-.2776C32.5217,1.1162,30.562-.0848,28.4458.0047H5.3908C3.243-.0771,1.2711,1.1861.4475,3.1713c-.2523.3669-.1593.8689.2076,1.1211.0674.0463.1414.0821.2196.1062Z"/><path class="cls-1" d="m33.9044,9.0029c.0428-.4436-.2822-.8379-.7258-.8806-.1145-.011-.23.0025-.3388.0398-.1566.0345-.3074.0916-.4475.1695-4.7963,2.4633-9.5859,4.9496-14.3687,7.459-.6586.3898-1.4773.3898-2.136,0-4.8054-2.4999-9.6153-5.0088-14.4297-7.5268-.8612-.4408-1.4579-.0882-1.4579.8408v11.0732c.0066.4587.0727.9145.1966,1.3562.6173,2.3414,2.7598,3.9539,5.1806,3.899h23.2584c2.5735.0381,4.7826-1.824,5.1806-4.3669.0975-.8234.127-1.6535.0882-2.4818v-9.5814Z"/></svg>