<?xml version="1.0" encoding="UTF-8"?><svg id="Isolation_Mode" xmlns="http://www.w3.org/2000/svg" viewBox="0 0 160.1723 70.4535"><defs><style>.cls-1{fill:#fff;}.cls-2{fill:#1d1d1d;}</style></defs><polygon class="cls-2" points="115.6816 65.3751 8.2408 65.3751 4.7213 70.4535 112.162 70.4535 115.6816 65.3751"/><polygon class="cls-2" points="140.3997 65.3751 123.1871 65.3751 119.6676 70.4535 136.8802 70.4535 140.3997 65.3751"/><polygon class="cls-2" points="147.9052 65.3751 144.3857 70.4535 156.6523 70.4535 160.1723 65.3751 147.9052 65.3751"/><polygon class="cls-1" points="4.3597 60.0981 4.3597 0 0 6.3438 0 66.3996 4.3597 60.0981"/><path class="cls-2" d="m23.7395.0703h-8.4232c-2.7777,0-4.3075,1.5294-4.3075,4.3067v5.8968c0,2.7772,1.5298,4.3067,4.3075,4.3067h8.4232c2.7768,0,4.3058-1.5294,4.3058-4.3067v-.9371h-2.7166v.9371c0,1.1739-.4158,1.5901-1.5893,1.5901h-8.4232c-1.1743,0-1.591-.4162-1.591-1.5901v-5.8968c0-1.1739.4167-1.5901,1.591-1.5901h8.4232c1.1735,0,1.5893.4162,1.5893,1.5901v.9376h2.7166v-.9376C28.0453,1.5997,26.5163.0703,23.7395.0703"/><polygon class="cls-2" points="31.1355 .0703 30.1983 .0703 30.1983 1.0074 30.1983 13.6433 30.1983 14.5804 31.1355 14.5804 46.2973 14.5804 47.2349 14.5804 47.2349 13.6433 47.2349 12.801 47.2349 11.8639 46.2973 11.8639 32.9149 11.8639 32.9149 8.6836 45.4554 8.6836 46.3926 8.6836 46.3926 7.7465 46.3926 6.9042 46.3926 5.9671 45.4554 5.9671 32.9149 5.9671 32.9149 2.7869 46.2973 2.7869 47.2349 2.7869 47.2349 1.8497 47.2349 1.0074 47.2349 .0703 46.2973 .0703 31.1355 .0703"/><polygon class="cls-2" points="66.3943 14.0138 66.3943 1.0075 66.3943 .0704 65.4571 .0704 64.6149 .0704 63.6777 .0704 63.6777 1.0075 63.6777 10.2862 51.0799 .0665 49.3578 .0665 49.3578 .637 49.3578 13.6434 49.3578 14.5805 50.2949 14.5805 51.1372 14.5805 52.0743 14.5805 52.0743 13.6434 52.0743 4.3651 64.6687 14.5814 66.3943 14.5814 66.3943 14.0138"/><polygon class="cls-2" points="75.6738 2.7871 75.6738 13.6431 75.6738 14.5806 76.611 14.5806 77.4533 14.5806 78.3904 14.5806 78.3904 13.6431 78.3904 2.7871 84.6132 2.7871 85.5504 2.7871 85.5504 1.8499 85.5504 1.0077 85.5504 .0705 84.6132 .0705 69.4514 .0705 68.5139 .0705 68.5139 1.0077 68.5139 1.8499 68.5139 2.7871 69.4514 2.7871 75.6738 2.7871"/><path class="cls-2" d="m89.4778,14.5806h.9372v-5.8968h10.0141c1.173,0,1.5888.4158,1.5888,1.5897v4.3071h2.717v-4.3071c0-1.3995-.3944-2.3303-.8995-2.9482.5051-.6179.8995-1.5482.8995-2.9482,0-2.7772-1.5294-4.3067-4.3058-4.3067h-12.7307v14.5101h1.7794Zm.9372-11.7936h10.0141c1.173,0,1.5888.4162,1.5888,1.5901s-.4158,1.5897-1.5888,1.5897h-10.0141v-3.1798Z"/><path class="cls-2" d="m114.3011.3014l-8.0022,12.8461-.8927,1.4328h3.1939l.2752-.4419,1.8226-2.9277h8.7971l1.823,2.9277.2752.4419h3.1935l-.8923-1.4328L115.8921.3014l-.1466-.235h-1.2982l-.1462.235Zm3.5046,8.1928h-5.4182l2.7089-4.349,2.7093,4.349Z"/><polygon class="cls-2" points="141.8789 14.5805 142.816 14.5805 142.816 13.6433 142.816 12.801 142.816 11.8639 141.8789 11.8639 128.4965 11.8639 128.4965 1.0075 128.4965 .0703 127.5589 .0703 126.7171 .0703 125.7795 .0703 125.7795 1.0075 125.7795 13.6433 125.7795 14.5805 126.7171 14.5805 141.8789 14.5805"/><path class="cls-2" d="m23.7395,22.1064h-12.7307v14.5101h2.7166v-5.8968h10.0141c2.7768,0,4.3058-1.5294,4.3058-4.3067s-1.529-4.3067-4.3058-4.3067m0,5.8968h-10.0141v-3.1798h10.0141c1.1735,0,1.5893.4158,1.5893,1.5897s-.4158,1.5901-1.5893,1.5901"/><path class="cls-2" d="m31.7325,36.6168h.9371v-5.8968h10.0141c1.173,0,1.5888.4158,1.5888,1.5897v4.3071h2.717v-4.3071c0-1.3999-.3944-2.3303-.8995-2.9482.5051-.6179.8995-1.5482.8995-2.9482,0-2.7772-1.5294-4.3067-4.3058-4.3067h-12.7307v14.5101h1.7794Zm.9371-11.7936h10.0141c1.173,0,1.5888.4162,1.5888,1.5901s-.4158,1.5897-1.5888,1.5897h-10.0141v-3.1798Z"/><polygon class="cls-2" points="65.4726 36.6166 66.4097 36.6166 66.4097 35.6795 66.4097 34.8372 66.4097 33.9001 65.4726 33.9001 52.0902 33.9001 52.0902 30.7198 64.6303 30.7198 65.5679 30.7198 65.5679 29.7827 65.5679 28.9404 65.5679 28.0033 64.6303 28.0033 52.0902 28.0033 52.0902 24.8231 65.4726 24.8231 66.4097 24.8231 66.4097 23.8859 66.4097 23.0436 66.4097 22.1065 65.4726 22.1065 50.3107 22.1065 49.3732 22.1065 49.3732 23.0436 49.3732 35.6795 49.3732 36.6166 50.3107 36.6166 65.4726 36.6166"/><path class="cls-2" d="m81.2495,36.6166c2.7768,0,4.3058-1.5294,4.3058-4.3067v-.9376h-2.7166v.9376c0,1.1739-.4158,1.5901-1.5893,1.5901h-8.4232c-1.1743,0-1.591-.4162-1.591-1.5901v-5.8968c0-1.1739.4167-1.5901,1.591-1.5901h8.4232c1.1734,0,1.5893.4162,1.5893,1.5901v.9371h2.7166v-.9371c0-2.7772-1.529-4.3067-4.3058-4.3067h-8.4232c-2.7777,0-4.3075,1.5294-4.3075,4.3067v5.8968c0,2.7772,1.5298,4.3067,4.3075,4.3067h8.4232Z"/><path class="cls-2" d="m95.3899,22.3376l-8.0022,12.8461-.8927,1.4328h3.1939l.2752-.4419,1.8226-2.9277h8.7971l1.823,2.9277.2752.4419h3.1935l-.8923-1.4328-8.0023-12.8461-.1449-.2325h-1.3017l-.1444.2325Zm3.5046,8.1928h-5.4182l2.7089-4.349,2.7093,4.349Z"/><path class="cls-2" d="m119.6303,36.6166c2.7768,0,4.3058-1.5294,4.3058-4.3067s-1.529-4.3067-4.3058-4.3067h-8.4232c-1.1743,0-1.591-.4162-1.591-1.5901s.4167-1.5901,1.591-1.5901h8.4232c1.1734,0,1.5893.4162,1.5893,1.5901v.9371h2.7166v-.9371c0-2.7772-1.529-4.3067-4.3058-4.3067h-8.4232c-2.7777,0-4.3075,1.5294-4.3075,4.3067s1.5298,4.3067,4.3075,4.3067h8.4232c1.1734,0,1.5893.4162,1.5893,1.5901s-.4158,1.5901-1.5893,1.5901h-8.4232c-1.1743,0-1.591-.4162-1.591-1.5901v-.9376h-2.7166v.9376c0,2.7772,1.5298,4.3067,4.3075,4.3067h8.4232Z"/><polygon class="cls-2" points="131.9747 36.6166 132.9118 36.6166 133.7541 36.6166 134.6912 36.6166 134.6912 35.6795 134.6912 24.8231 140.9141 24.8231 141.8512 24.8231 141.8512 23.8859 141.8512 23.0436 141.8512 22.1065 140.9141 22.1065 125.7523 22.1065 124.8147 22.1065 124.8147 23.0436 124.8147 23.8859 124.8147 24.8231 125.7523 24.8231 131.9747 24.8231 131.9747 35.6795 131.9747 36.6166"/><path class="cls-2" d="m23.7395,44.1427h-8.4232c-2.7777,0-4.3075,1.5294-4.3075,4.3067v5.8968c0,2.7772,1.5298,4.3067,4.3075,4.3067h8.4232c2.7768,0,4.3058-1.5294,4.3058-4.3067v-.9371h-2.7166v.9371c0,1.1739-.4158,1.5901-1.5893,1.5901h-8.4232c-1.1743,0-1.591-.4162-1.591-1.5901v-5.8968c0-1.1739.4167-1.5901,1.591-1.5901h8.4232c1.1735,0,1.5893.4162,1.5893,1.5901v.9376h2.7166v-.9376c0-2.7772-1.529-4.3067-4.3058-4.3067"/><path class="cls-2" d="m42.9286,44.1426h-8.4227c-2.7777,0-4.308,1.5294-4.308,4.3067v5.8968c0,2.7773,1.5303,4.3067,4.308,4.3067h8.4227c2.7768,0,4.3058-1.5294,4.3058-4.3067v-5.8968c0-2.7772-1.529-4.3067-4.3058-4.3067m1.5893,10.2034c0,1.1739-.4158,1.5901-1.5893,1.5901h-8.4227c-1.1747,0-1.591-.4162-1.591-1.5901v-5.8968c0-1.1739.4162-1.5897,1.591-1.5897h8.4227c1.1735,0,1.5893.4158,1.5893,1.5897v5.8968Z"/><polygon class="cls-2" points="66.3989 58.0862 66.3989 45.0798 66.3989 44.1427 65.4617 44.1427 64.6194 44.1427 63.6823 44.1427 63.6823 45.0798 63.6823 54.3585 51.0858 44.1397 49.3623 44.1397 49.3623 44.7093 49.3623 57.7157 49.3623 58.6528 50.2995 58.6528 51.1417 58.6528 52.0789 58.6528 52.0789 57.7157 52.0789 48.4374 64.8711 58.8139 64.9275 58.8601 66.3989 58.8601 66.3989 58.0862"/><path class="cls-2" d="m81.243,44.1427h-8.4232c-2.7777,0-4.3075,1.5294-4.3075,4.3067v5.8968c0,2.7772,1.5298,4.3067,4.3075,4.3067h8.4232c2.7768,0,4.3058-1.5294,4.3058-4.3067v-.9371h-2.7166v.9371c0,1.1739-.4158,1.5901-1.5893,1.5901h-8.4232c-1.1743,0-1.591-.4162-1.591-1.5901v-5.8968c0-1.1739.4167-1.5901,1.591-1.5901h8.4232c1.1734,0,1.5893.4162,1.5893,1.5901v.9376h2.7166v-.9376c0-2.7772-1.529-4.3067-4.3058-4.3067"/><path class="cls-2" d="m100.4117,44.1426h-12.7307v14.5101h2.7166v-5.8968h10.0142c1.1734,0,1.5893.4162,1.5893,1.5901v4.3067h2.7166v-4.3067c0-1.3999-.394-2.3307-.8991-2.9482.5051-.6179.8991-1.5487.8991-2.9486,0-2.7772-1.529-4.3067-4.3058-4.3067m0,5.8968h-10.0142v-3.1798h10.0142c1.1734,0,1.5893.4158,1.5893,1.5897s-.4158,1.5901-1.5893,1.5901"/><polygon class="cls-2" points="107.8007 44.1427 106.8635 44.1427 106.8635 45.0798 106.8635 57.7156 106.8635 58.6528 107.8007 58.6528 122.9625 58.6528 123.9001 58.6528 123.9001 57.7156 123.9001 56.8734 123.9001 55.9362 122.9625 55.9362 109.5801 55.9362 109.5801 52.756 122.1206 52.756 123.0578 52.756 123.0578 51.8189 123.0578 50.9766 123.0578 50.0394 122.1206 50.0394 109.5801 50.0394 109.5801 46.8592 122.9625 46.8592 123.9001 46.8592 123.9001 45.9221 123.9001 45.0798 123.9001 44.1427 122.9625 44.1427 107.8007 44.1427"/><polygon class="cls-2" points="125.9559 44.1427 125.0188 44.1427 125.0188 45.0798 125.0188 45.9221 125.0188 46.8592 125.9559 46.8592 132.1783 46.8592 132.1783 57.7156 132.1783 58.6528 133.1159 58.6528 133.9577 58.6528 134.8953 58.6528 134.8953 57.7156 134.8953 46.8592 141.1177 46.8592 142.0553 46.8592 142.0553 45.9221 142.0553 45.0798 142.0553 44.1427 141.1177 44.1427 125.9559 44.1427"/><polygon class="cls-2" points="159.2182 44.1427 144.0564 44.1427 143.1189 44.1427 143.1189 45.0798 143.1189 57.7156 143.1189 58.6528 144.0564 58.6528 159.2182 58.6528 160.1554 58.6528 160.1554 57.7156 160.1554 56.8734 160.1554 55.9362 159.2182 55.9362 145.8358 55.9362 145.8358 52.756 158.376 52.756 159.3135 52.756 159.3135 51.8189 159.3135 50.9766 159.3135 50.0394 158.376 50.0394 145.8358 50.0394 145.8358 46.8592 159.2182 46.8592 160.1554 46.8592 160.1554 45.9221 160.1554 45.0798 160.1554 44.1427 159.2182 44.1427"/></svg>