<?xml version="1.0" encoding="UTF-8"?><svg id="Layer_1" xmlns="http://www.w3.org/2000/svg" viewBox="0 0 36.0242 36.0128"><defs><style>.cls-1{fill:#1d1d1d;}</style></defs><path class="cls-1" d="m35.6548,30.2614c-2.0412,4.893-6.8252,5.7495-8.3879,5.7495-.4602,0-7.61.3798-17.8871-9.3692C1.1076,18.7959.0969,10.3589.0086,8.7543-.0762,7.1938.3714,3.2762,5.7598.3667,6.4275.0063,7.7503-.1523,8.0931.1887c.1516.1516,4.6738,7.5937,4.793,7.8387.1174.2476.1787.489.1787.7269,0,.3419-.2436.7657-.7272,1.2759-.4855.5093-1.0124.9763-1.581,1.401-.5701.4256-1.097.875-1.5808,1.3517-.4853.4758-.7272.8662-.7272,1.1728.0324.7939.684,3.6356,5.6376,7.9902,4.9571,4.3546,7.3428,5.5821,7.5739,5.6667.2291.0846.4203.126.5718.126.3069,0,.6985-.2414,1.173-.7252.4765-.4855,2.0753-2.6778,2.5859-3.1616.5109-.4838.9349-.7269,1.2759-.7269.2364,0,.48.059.7254.178.2474.1198,7.6984,4.4798,7.8411,4.6251.3862.3974.1137,1.6336-.1787,2.3333"/></svg>